<svg width="22" height="22" viewBox="0 0 22 22" fill="none" xmlns="http://www.w3.org/2000/svg">
<path fill-rule="evenodd" clip-rule="evenodd" d="M18.7947 3.19716C16.7267 1.13606 13.9767 0.00121634 11.0464 0C5.00805 0 0.0941111 4.8897 0.0916667 10.9009C0.0904444 12.8221 0.595222 14.6977 1.55406 16.3507L0 22L5.80678 20.4844C7.40667 21.3535 9.20822 21.8103 11.0416 21.8109H11.0464C17.0836 21.8109 21.9982 16.9206 22 10.91C22.0012 7.99685 20.8627 5.25764 18.7947 3.19716ZM11.0464 19.9699H11.0428C9.40928 19.9699 7.80694 19.5326 6.40872 18.7068L6.07628 18.5103L2.63022 19.4098L3.54994 16.0661L3.33361 15.7231C2.42244 14.2805 1.94089 12.6129 1.9415 10.9009C1.94333 5.90535 6.028 1.84094 11.0501 1.84094C13.4817 1.84215 15.7679 2.78543 17.4869 4.49865C19.206 6.21126 20.152 8.48825 20.1508 10.9088C20.1483 15.9049 16.0643 19.9699 11.0464 19.9699ZM16.0404 13.1839C15.7667 13.0477 14.421 12.3891 14.1698 12.2978C13.9187 12.2066 13.7366 12.1616 13.5544 12.4341C13.3723 12.7071 12.8474 13.3208 12.6879 13.502C12.5284 13.6839 12.3683 13.7064 12.0951 13.5701C11.8213 13.4339 10.9395 13.1462 9.89389 12.2182C9.0805 11.4957 8.53111 10.6041 8.371 10.331C8.2115 10.0579 8.35389 9.91076 8.49078 9.77514C8.61361 9.6529 8.76456 9.45707 8.90144 9.29773C9.03833 9.139 9.08356 9.02466 9.17522 8.84342C9.26689 8.66158 9.22106 8.50285 9.15261 8.36601C9.08417 8.22978 8.53722 6.88876 8.30867 6.34384C8.08622 5.8129 7.86072 5.88467 7.69328 5.87615C7.53378 5.86825 7.35106 5.86703 7.16833 5.86703C6.98561 5.86703 6.68922 5.93515 6.43806 6.20761C6.18689 6.48068 5.47983 7.13933 5.47983 8.47974C5.47983 9.82015 6.46067 11.1156 6.59756 11.298C6.73444 11.4798 8.52806 14.2312 11.2732 15.4111C11.9258 15.692 12.4361 15.8593 12.8339 15.9852C13.4897 16.1926 14.0861 16.1634 14.5579 16.0934C15.0834 16.015 16.1773 15.4342 16.4053 14.798C16.6332 14.1619 16.6332 13.6164 16.5648 13.5026C16.4963 13.3889 16.3142 13.3202 16.0404 13.1839Z" fill="#1F222E"/>
</svg>
